<?xml version="1.0" standalone="no"?>
<!DOCTYPE svg PUBLIC "-//W3C//DTD SVG 20010904//EN"
 "http://www.w3.org/TR/2001/REC-SVG-20010904/DTD/svg10.dtd">
<svg version="1.0" xmlns="http://www.w3.org/2000/svg"
 width="1000.000000pt" height="1000.000000pt" viewBox="0 0 1000.000000 1000.000000"
 preserveAspectRatio="xMidYMid meet">
<metadata>
Created by potrace 1.14, written by Peter Selinger 2001-2017
</metadata>
<g transform="translate(0.000000,1000.000000) scale(0.100000,-0.100000)"
fill="#000000" stroke="none">
<path d="M4740 9051 c-25 -4 -73 -6 -107 -6 -35 0 -63 -4 -63 -8 0 -4 -9 -3
-19 3 -11 5 -22 6 -25 2 -4 -8 -38 -12 -123 -15 -13 -1 -23 -4 -23 -7 0 -3
-15 -6 -32 -7 -18 -1 -46 -5 -63 -8 -16 -3 -38 -6 -47 -8 -10 -2 -20 -6 -24
-10 -11 -11 -10 -807 1 -807 7 0 7 -3 0 -8 -12 -9 -16 -42 -5 -42 5 0 6 -9 3
-19 -4 -16 -1 -19 16 -14 12 3 21 10 21 15 0 6 7 8 15 5 8 -4 17 -2 19 2 3 5
20 12 38 16 18 4 38 9 43 10 6 2 24 6 40 9 17 3 41 8 55 12 14 3 68 7 120 8
53 1 101 5 107 9 5 4 13 4 16 0 4 -3 42 -7 84 -9 148 -5 283 -22 283 -34 0 -4
10 -6 23 -5 12 1 37 -7 55 -18 17 -10 32 -15 32 -10 0 4 4 3 8 -2 4 -6 19 -16
33 -23 14 -8 40 -37 57 -65 41 -70 53 -130 39 -207 -4 -19 -9 -50 -12 -68 -6
-32 -35 -96 -35 -77 0 6 -9 -4 -19 -21 -31 -51 -76 -81 -151 -99 -3 -1 -12 -4
-20 -7 -20 -8 -126 -39 -142 -42 -7 -2 -33 -9 -58 -16 -25 -8 -49 -15 -55 -16
-5 0 -21 -6 -35 -11 -14 -6 -28 -9 -32 -6 -5 2 -8 0 -8 -6 0 -5 -9 -8 -20 -6
-11 2 -20 0 -20 -4 0 -4 -6 -8 -12 -8 -20 -2 -170 -48 -206 -64 -18 -7 -32
-17 -32 -21 0 -5 -4 -8 -9 -8 -5 0 -49 -24 -97 -52 -109 -66 -324 -272 -345
-330 -7 -21 -16 -38 -20 -38 -4 0 -11 -10 -14 -22 -4 -11 -21 -44 -37 -72 -17
-28 -30 -52 -29 -53 0 -2 1 -4 0 -5 -4 -15 -9 -50 -11 -80 -2 -21 -5 -38 -8
-38 -3 0 -6 -10 -6 -22 -1 -13 -5 -41 -8 -63 -7 -38 -9 -349 -3 -390 2 -11 5
-25 8 -30 3 -6 6 -26 8 -45 1 -19 6 -39 11 -44 5 -5 6 -15 3 -22 -6 -16 95
-235 116 -254 3 -3 12 -17 20 -32 8 -15 18 -25 23 -22 4 3 8 0 8 -5 0 -6 8
-20 18 -32 78 -95 198 -219 212 -219 5 0 10 -4 10 -8 0 -5 15 -16 33 -25 17
-10 52 -30 77 -46 86 -56 155 -95 164 -93 4 2 14 -2 20 -8 7 -5 16 -7 19 -3 4
3 7 0 7 -7 0 -7 2 -11 6 -8 3 3 25 0 50 -8 24 -7 44 -10 44 -7 0 3 6 1 13 -4
15 -13 114 -37 145 -36 12 0 22 -3 22 -7 0 -4 12 -7 28 -8 15 0 29 -1 32 -2
24 -9 138 -23 190 -24 30 -1 60 -4 65 -7 15 -9 108 -5 124 5 10 6 12 5 7 -2
-8 -13 28 -12 40 1 4 3 16 2 27 -4 10 -6 17 -7 14 -2 -3 5 29 9 74 9 43 -1 79
1 79 4 0 3 17 6 38 6 20 1 57 5 82 9 25 4 56 9 70 10 14 2 25 4 25 5 0 1 20 4
45 7 25 2 46 6 48 8 8 7 7 121 0 143 -4 13 -4 21 0 18 10 -6 9 64 -1 80 -3 6
-3 14 0 18 10 10 10 89 1 103 -5 6 -5 14 0 17 5 3 7 18 5 33 -2 16 -4 33 -4
38 5 97 5 154 -1 173 -4 13 -4 21 0 18 10 -6 9 65 -1 81 -4 6 -3 14 1 17 8 5
9 29 2 61 -1 6 -1 12 0 15 7 20 7 40 -2 40 -7 0 -6 5 1 14 7 8 8 17 3 20 -11
7 -52 -4 -52 -14 0 -5 -8 -7 -17 -5 -10 1 -22 -1 -28 -5 -8 -7 -74 -23 -145
-36 -52 -10 -108 -14 -200 -14 -170 1 -215 3 -222 14 -5 7 -8 6 -8 -2 0 -7 -4
-10 -10 -7 -5 3 -36 8 -67 10 -32 2 -59 4 -60 6 -2 1 -7 3 -13 4 -5 1 -11 3
-12 4 -3 2 -33 9 -65 14 -10 1 -25 7 -33 12 -8 5 -17 10 -20 11 -38 11 -50 18
-50 27 0 6 -3 7 -7 4 -7 -8 -43 21 -43 35 0 5 -9 18 -20 30 -10 12 -17 25 -14
30 3 4 0 8 -5 8 -6 0 -10 3 -10 8 1 4 0 9 -1 12 -15 39 -14 178 2 205 3 6 8
23 12 38 8 33 15 42 78 107 28 28 60 50 80 55 35 8 66 15 83 19 6 1 20 7 31
14 12 6 24 9 27 5 4 -3 13 0 22 7 8 7 15 9 15 5 0 -4 7 -2 15 5 8 7 15 10 15
6 0 -3 12 -1 28 5 27 11 65 20 92 23 8 0 18 5 21 9 3 4 18 10 34 13 15 3 36 9
47 15 10 5 23 7 28 4 5 -3 12 0 17 7 4 7 19 14 33 15 59 6 70 8 70 15 0 4 15
10 34 13 19 4 43 15 55 26 11 10 23 19 27 19 10 0 128 73 136 84 4 6 8 7 8 2
0 -5 8 -2 18 7 10 10 22 14 25 10 4 -3 7 -1 7 5 0 7 32 42 72 80 96 90 154
151 150 159 -2 3 0 9 5 12 5 3 34 56 65 116 51 102 69 163 68 233 0 12 4 22 8
22 5 0 8 10 7 23 -1 12 2 34 6 50 5 16 4 27 -2 27 -6 0 -7 5 -3 12 11 18 11
88 -1 88 -7 0 -7 3 0 8 11 8 13 32 3 48 -4 6 -5 14 -1 17 10 11 9 97 -2 101
-5 3 -4 5 3 5 8 1 10 6 5 13 -4 7 -9 26 -11 43 -9 80 -10 90 -12 90 -1 0 -4
14 -6 30 -3 17 -7 37 -11 45 -3 8 -7 17 -7 20 -5 22 -30 70 -38 70 -5 0 -7 4
-3 9 3 5 1 12 -5 16 -6 4 -8 11 -5 16 4 5 2 9 -2 9 -5 0 -15 17 -22 37 -8 20
-18 41 -22 47 -41 49 -49 60 -49 68 0 5 -4 7 -8 4 -5 -3 -17 9 -27 26 -10 17
-25 38 -34 48 -9 9 -40 42 -69 73 -29 31 -56 57 -60 57 -4 0 -13 9 -19 20 -7
11 -27 27 -45 36 -18 9 -38 23 -46 30 -7 8 -18 12 -23 9 -5 -4 -9 -1 -9 5 0 6
-8 14 -17 17 -10 4 -36 19 -58 34 -70 47 -115 69 -140 69 -14 0 -25 4 -25 8 0
4 -11 9 -26 10 -14 1 -34 7 -45 12 -11 6 -24 8 -29 5 -6 -3 -10 -1 -10 6 0 7
-3 9 -7 6 -3 -4 -13 -1 -21 6 -13 10 -14 9 -7 -3 7 -12 6 -13 -7 -2 -14 11
-56 21 -105 24 -13 1 -23 4 -23 8 0 3 -12 6 -27 7 -41 2 -148 19 -148 23 0 1
-40 3 -89 5 -48 2 -100 6 -115 8 -14 1 -46 1 -71 -2z"/>
<path d="M610 6361 c-18 -7 -23 -24 -23 -73 0 -21 -3 -36 -6 -34 -3 2 -6 -12
-7 -32 -2 -74 -8 -117 -18 -131 -8 -11 -8 -13 1 -8 8 5 10 0 4 -20 -4 -16 -7
-47 -7 -70 1 -24 -2 -43 -6 -43 -5 0 -8 -5 -8 -11 0 -5 6 -7 13 -3 9 6 9 4 1
-7 -17 -21 -18 -419 -2 -419 10 0 10 -2 1 -8 -13 -8 -14 -52 -1 -52 4 0 3 -11
-2 -25 -5 -13 -6 -27 -1 -29 4 -3 7 -21 6 -41 -1 -19 2 -35 7 -35 11 0 6 -23
-7 -32 -6 -5 -6 -8 1 -8 11 0 13 -9 16 -90 0 -22 6 -40 12 -40 6 0 4 -5 -4
-10 -8 -5 -10 -10 -4 -10 5 0 10 -10 11 -22 2 -53 7 -98 13 -98 3 0 5 -10 6
-22 1 -37 17 -137 29 -188 10 -43 16 -74 18 -92 1 -10 4 -18 7 -18 3 0 6 -14
7 -31 1 -17 8 -38 15 -47 11 -13 11 -14 -2 -7 -13 7 -13 6 -2 -7 7 -9 14 -30
15 -47 1 -17 6 -31 10 -31 5 0 6 -4 3 -8 -3 -5 1 -21 9 -36 10 -18 10 -24 2
-19 -9 5 -9 3 -1 -8 16 -19 44 -116 37 -123 -4 -3 -1 -6 5 -6 7 0 12 -9 12
-20 0 -12 7 -34 15 -50 9 -17 15 -32 15 -35 1 -17 64 -180 72 -183 4 -2 5 -9
2 -17 -3 -7 -1 -16 5 -20 6 -3 11 -15 11 -26 0 -10 5 -19 11 -19 5 0 7 -4 4
-10 -3 -5 -1 -10 5 -10 6 0 9 -4 5 -9 -3 -5 0 -15 7 -23 7 -7 15 -22 16 -33 5
-24 33 -77 47 -87 6 -4 6 -8 1 -8 -4 0 -1 -11 8 -25 9 -13 16 -31 16 -40 0 -8
5 -15 11 -15 5 0 7 -4 4 -10 -3 -5 -2 -10 3 -10 5 0 17 -20 28 -45 10 -25 22
-45 26 -45 4 0 8 -9 8 -20 0 -11 5 -20 10 -20 6 0 10 -5 10 -10 0 -6 15 -35
34 -65 19 -29 32 -56 29 -59 -4 -3 -1 -6 5 -6 7 0 12 -5 12 -10 0 -6 5 -16 10
-23 21 -25 60 -88 60 -97 0 -6 5 -10 12 -10 6 0 9 -3 5 -6 -5 -5 10 -27 41
-59 6 -8 12 -18 12 -23 0 -5 8 -19 18 -30 9 -12 28 -38 42 -58 14 -20 33 -43
43 -52 9 -9 17 -22 17 -28 0 -7 3 -14 8 -16 4 -1 23 -23 42 -48 19 -25 39 -50
45 -56 5 -6 26 -30 45 -53 87 -106 128 -150 134 -143 3 3 6 0 6 -7 0 -7 24
-37 54 -66 30 -30 52 -56 48 -59 -3 -3 0 -6 7 -6 16 0 42 -26 34 -34 -4 -3 -1
-6 5 -6 6 0 36 -25 67 -55 30 -30 55 -52 55 -49 0 3 7 -1 15 -10 8 -8 15 -20
15 -27 0 -7 3 -10 6 -6 3 3 17 -4 29 -16 13 -12 42 -38 66 -57 23 -19 52 -45
65 -58 13 -13 24 -20 24 -16 0 4 8 -1 18 -12 10 -10 31 -28 46 -39 16 -11 34
-26 42 -33 8 -7 14 -10 14 -6 0 4 8 -3 19 -14 10 -12 23 -22 28 -22 6 0 18 -9
28 -20 10 -11 24 -20 31 -20 7 0 14 -3 16 -7 4 -11 78 -65 78 -58 0 3 6 1 13
-5 47 -40 61 -50 72 -50 6 0 20 -8 31 -17 22 -20 48 -35 109 -67 22 -12 42
-24 45 -27 3 -3 34 -21 70 -40 36 -18 67 -37 68 -41 2 -5 7 -6 12 -3 5 3 15
-2 24 -11 9 -8 20 -12 26 -9 6 3 13 -1 16 -9 3 -9 10 -13 15 -10 5 3 9 0 9 -5
0 -6 3 -10 8 -9 4 1 24 -6 46 -15 21 -9 42 -17 47 -17 5 0 9 -4 9 -10 0 -5 3
-9 8 -8 4 1 21 -5 37 -12 17 -7 32 -14 35 -15 3 -1 16 -6 30 -12 14 -6 57 -23
95 -38 39 -15 79 -31 90 -35 27 -11 58 -23 68 -25 4 -2 9 -4 12 -5 3 -1 10 -4
15 -5 6 -1 11 -3 13 -5 3 -2 40 -11 55 -12 6 -1 12 -6 12 -11 0 -5 6 -7 14 -4
7 3 19 0 25 -6 7 -7 17 -12 24 -12 27 -1 128 -29 133 -37 3 -4 20 -8 38 -8 18
0 36 -3 40 -7 7 -7 24 -11 64 -15 12 -1 22 -5 22 -8 0 -3 16 -7 36 -8 20 -2
48 -8 63 -15 14 -7 43 -12 64 -12 20 1 37 -2 37 -5 0 -6 38 -11 83 -11 9 0 17
-3 17 -7 0 -4 15 -8 33 -9 72 -4 103 -9 116 -17 10 -7 12 -6 6 4 -6 9 -4 11 6
5 14 -9 24 -11 101 -17 27 -1 48 -7 48 -12 0 -6 4 -6 10 0 10 10 102 6 96 -5
-3 -4 6 -7 19 -7 13 0 22 3 19 7 -5 8 16 6 31 -3 16 -9 418 -7 437 3 10 5 19
5 22 0 6 -9 19 -9 46 2 8 3 49 8 91 10 42 2 80 6 85 8 5 3 26 5 47 4 20 0 37
2 37 5 0 3 15 6 33 7 73 3 127 8 127 13 0 3 12 7 28 9 42 4 67 8 70 11 1 1 10
3 20 4 9 1 37 6 62 11 25 5 48 8 53 7 4 -1 7 4 7 10 0 9 4 8 10 -2 7 -11 10
-11 10 -2 0 7 5 10 10 7 6 -3 16 -3 23 2 6 4 21 9 32 11 36 6 40 7 50 13 6 4
18 5 28 4 9 -2 17 0 17 4 0 6 20 11 63 14 9 1 17 5 17 9 0 4 3 7 8 6 8 -1 58
10 82 19 8 4 18 5 23 5 4 -1 7 2 7 7 0 6 10 8 22 6 12 -3 30 3 41 13 10 9 21
16 23 15 2 -2 5 -3 7 -2 12 4 44 10 55 11 6 1 12 5 12 10 0 4 9 8 19 8 11 0
23 5 26 10 4 6 10 8 15 5 5 -3 17 -1 27 4 23 14 94 43 111 47 7 1 30 11 51 22
22 12 42 18 45 15 3 -4 6 -1 6 6 0 7 5 9 10 6 6 -3 10 -2 10 4 0 6 7 8 15 5 8
-4 15 -1 15 6 0 7 7 10 16 6 8 -3 12 -2 9 4 -3 5 6 12 20 16 14 3 25 10 25 15
0 5 7 6 15 3 8 -4 15 -1 15 5 0 6 3 10 8 9 10 -2 65 24 73 35 3 5 9 8 13 8 10
-2 109 50 128 67 10 8 18 11 18 7 0 -4 8 -1 17 7 18 15 119 74 138 80 5 2 20
13 34 26 13 12 26 20 29 18 4 -5 12 1 51 34 10 8 24 16 32 18 8 2 18 10 22 18
4 8 15 14 22 14 8 0 15 4 15 8 0 4 15 16 33 27 30 17 51 32 131 97 18 16 37
28 41 28 4 0 22 16 41 35 19 20 34 32 34 28 1 -5 10 3 20 16 11 13 20 21 20
18 0 -5 63 50 126 111 19 17 37 32 39 32 7 0 211 208 275 279 30 34 72 80 92
101 20 22 34 40 30 40 -3 0 3 8 14 18 10 10 30 34 44 52 14 18 34 42 44 52 11
10 16 18 12 18 -4 0 3 10 14 23 12 12 35 43 52 70 17 26 35 47 40 47 4 0 8 6
8 13 0 7 9 23 20 35 11 12 20 26 20 32 0 5 5 10 10 10 6 0 14 10 19 23 5 12
27 50 49 83 23 34 51 79 62 100 12 22 30 53 41 69 24 39 43 78 41 88 -1 4 2 7
6 7 7 0 33 42 37 60 0 3 9 20 18 37 10 18 15 33 12 33 -3 0 3 10 15 22 11 12
20 30 20 40 0 10 5 18 11 18 5 0 7 4 4 10 -3 5 -1 10 6 10 7 0 9 3 6 6 -3 4
-1 16 5 28 7 11 13 23 14 26 0 3 8 21 16 40 9 19 14 38 12 42 -3 5 -1 8 5 8 8
0 18 19 26 50 1 3 7 19 14 35 6 17 19 50 28 75 9 25 20 49 25 55 4 5 8 19 8
32 0 13 4 23 8 23 4 0 9 12 10 28 1 15 6 28 12 30 5 2 7 9 4 17 -3 7 -1 16 5
19 6 4 8 13 4 21 -3 8 0 15 7 15 7 0 10 6 7 14 -3 7 0 22 7 32 7 11 13 26 14
34 1 23 7 44 15 58 5 6 5 16 2 22 -3 5 -2 10 2 10 5 0 9 8 10 18 1 15 9 49 13
62 1 3 2 9 1 14 -1 4 2 13 7 20 5 6 8 19 7 28 -2 10 1 20 5 23 5 3 7 12 3 20
-3 8 -1 15 4 15 5 0 10 16 11 35 3 54 5 65 12 65 3 0 7 10 8 23 3 40 10 102
12 102 2 0 9 36 13 70 2 17 7 36 11 43 4 7 3 12 -3 12 -7 0 -7 8 -1 24 5 13
12 57 16 97 4 41 8 88 9 104 2 17 4 47 4 68 1 21 4 36 9 33 4 -2 8 9 9 26 0
20 -2 26 -8 17 -6 -10 -8 -8 -6 8 0 12 5 19 9 17 4 -3 8 2 8 11 0 9 -4 14 -8
11 -5 -3 -9 1 -9 9 0 8 4 12 9 9 5 -3 8 76 8 175 -1 127 -5 181 -13 185 -9 3
-9 5 1 5 6 1 12 6 12 12 0 5 -6 7 -12 3 -10 -6 -10 -4 0 7 14 16 16 33 2 24
-5 -3 -10 -1 -10 4 0 6 6 11 13 11 9 0 9 2 0 8 -7 4 -13 38 -15 80 -1 39 -7
72 -12 72 -4 0 -3 6 3 13 6 8 8 17 4 21 -4 4 -9 22 -10 39 -7 87 -10 114 -17
126 -5 7 -5 15 -2 18 3 3 1 14 -4 24 -8 14 -16 16 -39 9 -16 -4 -32 -6 -34 -3
-10 9 -57 10 -63 2 -3 -5 -14 -4 -26 2 -16 8 -19 8 -13 -1 5 -9 2 -10 -11 -3
-22 10 -116 9 -133 -1 -6 -4 -11 -3 -11 2 0 12 -83 9 -93 -3 -6 -7 -10 -6 -13
1 -3 8 -16 9 -39 4 -19 -4 -33 -5 -30 0 5 9 -67 6 -82 -3 -7 -4 -14 -3 -18 2
-3 7 -15 7 -29 1 -13 -5 -26 -6 -29 -4 -10 11 -57 11 -57 1 0 -7 -4 -7 -11 0
-8 8 -20 8 -36 2 -16 -6 -22 -5 -18 1 8 13 -38 8 -47 -5 -5 -7 -8 -7 -8 0 0
12 -152 11 -171 0 -6 -5 -10 -4 -7 1 4 5 -22 9 -58 9 -35 0 -64 -4 -64 -8 0
-5 -5 -5 -11 -1 -16 10 -429 11 -429 1 0 -4 -8 -4 -17 1 -15 6 -97 7 -213 2
-8 -1 -34 1 -57 3 -23 2 -48 0 -54 -4 -7 -4 -22 -4 -34 1 -30 11 -42 1 -43
-37 0 -25 4 -33 16 -33 10 0 13 -3 7 -8 -6 -4 -10 -123 -9 -322 0 -173 -2
-319 -5 -325 -3 -5 -7 -23 -8 -40 0 -16 -6 -59 -12 -95 -7 -36 -13 -80 -14
-97 -1 -18 -4 -33 -8 -33 -3 0 -10 -24 -14 -52 -8 -53 -10 -64 -15 -73 -1 -3
-3 -13 -5 -22 -1 -10 -7 -31 -15 -48 -7 -16 -13 -39 -14 -50 -1 -11 -5 -26 -9
-32 -5 -7 -5 -17 -2 -23 3 -5 1 -10 -4 -10 -6 0 -11 -11 -11 -25 0 -14 -5 -25
-10 -25 -6 0 -10 -6 -9 -12 2 -13 -4 -33 -23 -78 -6 -14 -12 -29 -12 -35 -1
-5 -9 -25 -19 -42 -9 -18 -18 -36 -19 -40 -3 -25 -21 -63 -29 -63 -5 0 -8 -3
-7 -7 1 -5 -22 -55 -51 -113 -67 -135 -83 -163 -98 -173 -7 -4 -13 -16 -13
-26 0 -11 -7 -21 -15 -25 -8 -3 -15 -12 -15 -20 0 -7 -7 -17 -16 -20 -8 -3
-12 -10 -9 -16 3 -6 -1 -13 -9 -16 -9 -3 -16 -12 -16 -19 0 -6 -9 -20 -20 -30
-11 -10 -20 -22 -20 -27 0 -4 -8 -17 -17 -27 -10 -10 -34 -38 -53 -62 -19 -23
-47 -56 -61 -73 -45 -53 -226 -230 -271 -266 -24 -19 -47 -40 -51 -47 -4 -7
-12 -13 -17 -13 -6 0 -19 -8 -29 -17 -10 -10 -35 -29 -56 -43 -20 -14 -42 -31
-50 -37 -7 -7 -18 -13 -24 -13 -5 0 -15 -8 -20 -17 -6 -10 -11 -15 -11 -11 0
4 -36 -15 -81 -42 -44 -28 -85 -50 -90 -50 -5 0 -9 -5 -9 -11 0 -5 -5 -7 -11
-3 -6 3 -14 3 -18 -2 -10 -14 -222 -107 -238 -105 -2 0 -23 -8 -48 -19 -25
-11 -45 -17 -45 -13 0 3 -7 0 -15 -7 -8 -6 -19 -9 -24 -6 -5 4 -12 2 -16 -4
-3 -5 -16 -10 -29 -10 -12 0 -26 -3 -30 -7 -4 -5 -16 -9 -27 -9 -10 -1 -20 -2
-21 -4 -5 -4 -44 -11 -88 -17 -25 -3 -49 -9 -55 -13 -5 -4 -26 -6 -45 -5 -19
1 -39 -1 -45 -5 -5 -5 -63 -7 -128 -7 -64 1 -117 -2 -117 -6 0 -5 -5 -5 -11
-1 -7 4 -31 7 -54 7 -23 0 -47 -3 -54 -7 -6 -4 -11 -4 -11 1 0 4 -36 7 -80 6
-44 -1 -80 2 -80 7 0 4 -22 7 -50 5 -27 -1 -50 1 -50 6 0 5 -20 9 -44 9 -25 0
-47 4 -50 9 -3 5 -15 7 -26 4 -11 -3 -20 -1 -20 5 0 5 -8 9 -18 9 -17 -1 -65
10 -92 20 -8 4 -17 7 -20 8 -12 3 -86 27 -100 32 -8 4 -20 5 -26 4 -6 0 -17 6
-24 14 -7 8 -20 15 -29 15 -9 0 -38 11 -66 24 -27 14 -53 22 -57 20 -5 -3 -8
-1 -8 5 0 5 -13 12 -30 16 -16 4 -30 10 -30 15 0 5 -20 16 -45 26 -25 9 -45
21 -45 25 0 5 -7 9 -15 9 -8 0 -15 4 -15 10 0 5 -3 9 -7 8 -13 -4 -185 108
-191 124 -2 4 -10 8 -17 8 -8 0 -22 11 -33 25 -11 13 -22 22 -24 20 -3 -3 -20
10 -39 30 -19 19 -37 35 -42 35 -9 0 -277 266 -277 275 0 4 -25 35 -55 68 -30
34 -55 67 -55 74 0 7 -8 17 -18 22 -10 5 -24 25 -32 45 -7 20 -19 36 -25 36
-6 0 -19 18 -29 40 -10 22 -22 40 -27 40 -5 0 -9 5 -9 11 0 6 -7 17 -15 25 -8
8 -11 22 -8 31 4 11 2 14 -5 9 -7 -4 -14 3 -18 19 -3 14 -10 25 -16 25 -5 0
-6 5 -3 10 3 6 3 10 -2 10 -4 0 -16 20 -26 45 -11 25 -24 45 -30 45 -6 0 -7 3
-4 7 4 3 2 12 -4 20 -6 7 -8 13 -5 13 4 0 -2 14 -14 30 -12 17 -18 30 -13 30
4 0 2 4 -6 9 -8 5 -15 17 -16 28 -1 10 -8 34 -17 53 -9 19 -19 45 -23 58 -3
12 -11 22 -16 22 -6 0 -7 9 -4 20 4 11 2 20 -4 20 -6 0 -11 12 -11 26 0 14 -3
23 -7 21 -5 -3 -9 5 -9 16 -1 12 -12 54 -24 92 -12 39 -23 80 -24 92 -1 13 -6
26 -9 30 -4 3 -7 16 -7 28 0 12 -3 25 -7 29 -7 7 -14 48 -16 101 -1 17 -6 33
-11 37 -5 3 -9 24 -9 45 0 21 -4 44 -10 51 -6 8 -6 12 3 12 8 0 9 4 3 13 -12
15 -11 67 1 86 7 11 5 13 -5 9 -11 -4 -14 1 -13 24 1 16 5 32 8 35 3 3 1 15
-5 26 -9 15 -8 18 2 12 9 -6 10 -3 6 10 -4 9 -3 23 3 30 8 10 8 15 -1 21 -8 5
-9 3 -4 -6 5 -9 4 -11 -4 -6 -7 5 -8 13 -2 23 4 9 6 25 3 36 -4 15 -2 18 9 12
12 -8 12 -6 0 8 -10 13 -11 20 -2 31 9 11 9 16 0 22 -8 5 -9 3 -4 -6 5 -9 4
-11 -4 -6 -7 5 -8 13 -2 24 6 10 6 24 -1 35 -8 15 -7 18 3 12 9 -6 11 -3 6 9
-4 10 -2 27 5 39 10 20 10 21 -6 8 -15 -13 -16 -12 -8 10 5 13 7 30 5 37 -3 7
1 20 9 29 11 14 11 16 -4 11 -14 -6 -15 -2 -9 20 4 15 4 39 0 54 -6 22 -4 26
10 20 13 -4 14 -3 5 9 -6 8 -10 35 -9 62 1 26 -2 50 -8 54 -18 11 -221 9 -229
-2 -5 -6 -8 -6 -8 0 0 9 -89 10 -415 5 -5 0 -128 1 -273 2 -169 2 -262 -1
-262 -7 0 -7 -3 -7 -8 0 -10 13 -305 14 -314 0 -5 -6 -8 -7 -8 0 0 11 -395 13
-406 2 -4 -3 -14 -3 -23 2 -9 5 -23 6 -31 2z"/>
</g>
</svg>
